M48
;GenerationSoftware,Autodesk,EAGLE,9.6.2*%
;CreationDate,2023-12-08T10:49:19Z*%
FMAT,2
ICI,OFF
METRIC,TZ,000.000
T8C0.500
T7C0.800
T6C0.813
T5C0.950
T4C1.016
T3C1.105
T2C2.300
T1C3.300
%
G90
M71
T1
X59000Y4000
X59000Y56000
X3000Y3000
X5000Y55000
T2
X52578Y5791
X52578Y17831
T3
X60452Y49530
X60452Y46990
X60452Y44450
X60452Y52070
T4
X4216Y29769
X26619Y50825
X26619Y55347
X20117Y50825
X20117Y55347
X8738Y36271
X4470Y6909
X4216Y36271
X8738Y29769
X9119Y24968
X4597Y24968
X9119Y18466
X4597Y18466
X8992Y13411
X4470Y13411
X8992Y6909
T5
X47868Y13061
X49868Y10561
X49868Y13061
X47868Y10561
T6
X43180Y48260
X54356Y22987
X54356Y20447
X47244Y36576
X47244Y41402
X40640Y48260
T7
X42672Y40005
X54229Y48006
X32004Y12446
X16002Y35560
X29337Y11557
X23114Y13335
X26670Y48895
X27559Y25781
X51562Y43561
X42799Y33909
X35560Y9779
X46988Y48135
X16724Y48895
X50378Y52451
X45339Y18669
X40005Y25781
T8
X56007Y48006
M30