G04 EAGLE Gerber RS-274X export*
G75*
%MOMM*%
%FSLAX34Y34*%
%LPD*%
%INBottom Copper*%
%IPPOS*%
%AMOC8*
5,1,8,0,0,1.08239X$1,22.5*%
G01*
%ADD10C,1.524000*%
%ADD11P,1.429621X8X292.500000*%
%ADD12C,1.320800*%
%ADD13P,1.578125X8X112.500000*%
%ADD14R,1.705100X1.705100*%
%ADD15C,1.300000*%
%ADD16C,0.406400*%
%ADD17C,0.906400*%
%ADD18C,0.609600*%
%ADD19C,0.457200*%
%ADD20C,0.254000*%


D10*
X89916Y141732D02*
X89916Y126492D01*
X44704Y126492D02*
X44704Y141732D01*
X89916Y76708D02*
X89916Y61468D01*
X44704Y61468D02*
X44704Y76708D01*
D11*
X543560Y229870D03*
X543560Y204470D03*
D12*
X472440Y365760D03*
X472440Y414020D03*
X406400Y482600D03*
X431800Y482600D03*
D10*
X273812Y508254D02*
X258572Y508254D01*
X258572Y553466D02*
X273812Y553466D01*
X208788Y508254D02*
X193548Y508254D01*
X193548Y553466D02*
X208788Y553466D01*
X87376Y370332D02*
X87376Y355092D01*
X42164Y355092D02*
X42164Y370332D01*
X87376Y305308D02*
X87376Y290068D01*
X42164Y290068D02*
X42164Y305308D01*
X91186Y257302D02*
X91186Y242062D01*
X45974Y242062D02*
X45974Y257302D01*
X91186Y192278D02*
X91186Y177038D01*
X45974Y177038D02*
X45974Y192278D01*
D13*
X478680Y130610D03*
X478680Y105610D03*
X498680Y105610D03*
X498680Y130610D03*
D14*
X604520Y444500D03*
X604520Y469900D03*
X604520Y495300D03*
X604520Y520700D03*
D15*
X426720Y400050D03*
D16*
X506730Y480060D01*
X542290Y480060D01*
D15*
X542290Y480060D03*
D16*
X522688Y154618D02*
X498680Y130610D01*
X522688Y154618D02*
X535594Y154618D01*
X549472Y168496D01*
X549472Y188124D01*
X543560Y194036D01*
X543560Y204470D01*
D15*
X320040Y124460D03*
D16*
X320040Y195580D01*
D15*
X160020Y355600D03*
D16*
X288925Y226695D02*
X320040Y195580D01*
X288925Y226695D02*
X160020Y355600D01*
D15*
X293370Y115570D03*
X231140Y133350D03*
X167236Y488950D03*
D16*
X266700Y488950D01*
D15*
X266700Y488950D03*
D16*
X395674Y268374D02*
X463954Y268374D01*
X320040Y192740D02*
X320040Y124460D01*
X320040Y192740D02*
X395674Y268374D01*
X288925Y244475D02*
X288925Y226695D01*
D15*
X275590Y257810D03*
D16*
X288925Y244475D01*
X515620Y320040D02*
X515620Y435610D01*
D15*
X515620Y435610D03*
D16*
X515620Y320040D02*
X463954Y268374D01*
X395674Y268374D02*
X395674Y271214D01*
X426720Y302260D01*
X426720Y337820D01*
X427994Y339094D01*
D15*
X427994Y339094D03*
D16*
X293370Y115570D02*
X248920Y115570D01*
X231140Y133350D01*
X568960Y480060D02*
X604520Y444500D01*
X568960Y480060D02*
X560070Y480060D01*
D17*
X560070Y480060D03*
D15*
X355600Y97790D03*
D18*
X408940Y151130D01*
X408940Y248920D01*
X400050Y257810D01*
D15*
X400050Y257810D03*
X453390Y186690D03*
D19*
X525780Y229870D02*
X543560Y229870D01*
X525780Y229870D02*
X482600Y186690D01*
X453390Y186690D01*
D20*
X510540Y520700D02*
X604520Y520700D01*
X510540Y520700D02*
X506730Y524510D01*
X503782Y524510D01*
D15*
X503782Y524510D03*
D20*
X483823Y495300D02*
X604520Y495300D01*
D15*
X469876Y481354D03*
D20*
X483823Y495300D01*
M02*
