G04 EAGLE Gerber RS-274X export*
G75*
%MOMM*%
%FSLAX34Y34*%
%LPD*%
%IN*%
%IPPOS*%
%AMOC8*
5,1,8,0,0,1.08239X$1,22.5*%
G01*
%ADD10C,0.254000*%


D10*
X0Y0D02*
X629920Y0D01*
X629920Y595630D01*
X0Y595630D01*
X0Y0D01*
X66500Y549460D02*
X66429Y548382D01*
X66288Y547311D01*
X66078Y546251D01*
X65798Y545208D01*
X65451Y544185D01*
X65037Y543187D01*
X64560Y542218D01*
X64019Y541282D01*
X63419Y540384D01*
X62762Y539527D01*
X62049Y538715D01*
X61285Y537951D01*
X60473Y537239D01*
X59616Y536581D01*
X58718Y535981D01*
X57782Y535441D01*
X56813Y534963D01*
X55815Y534549D01*
X54792Y534202D01*
X53749Y533922D01*
X52689Y533712D01*
X51618Y533571D01*
X50540Y533500D01*
X49460Y533500D01*
X48382Y533571D01*
X47311Y533712D01*
X46251Y533922D01*
X45208Y534202D01*
X44185Y534549D01*
X43187Y534963D01*
X42218Y535441D01*
X41282Y535981D01*
X40384Y536581D01*
X39527Y537239D01*
X38715Y537951D01*
X37951Y538715D01*
X37239Y539527D01*
X36581Y540384D01*
X35981Y541282D01*
X35441Y542218D01*
X34963Y543187D01*
X34549Y544185D01*
X34202Y545208D01*
X33922Y546251D01*
X33712Y547311D01*
X33571Y548382D01*
X33500Y549460D01*
X33500Y550540D01*
X33571Y551618D01*
X33712Y552689D01*
X33922Y553749D01*
X34202Y554792D01*
X34549Y555815D01*
X34963Y556813D01*
X35441Y557782D01*
X35981Y558718D01*
X36581Y559616D01*
X37239Y560473D01*
X37951Y561285D01*
X38715Y562049D01*
X39527Y562762D01*
X40384Y563419D01*
X41282Y564019D01*
X42218Y564560D01*
X43187Y565037D01*
X44185Y565451D01*
X45208Y565798D01*
X46251Y566078D01*
X47311Y566288D01*
X48382Y566429D01*
X49460Y566500D01*
X50540Y566500D01*
X51618Y566429D01*
X52689Y566288D01*
X53749Y566078D01*
X54792Y565798D01*
X55815Y565451D01*
X56813Y565037D01*
X57782Y564560D01*
X58718Y564019D01*
X59616Y563419D01*
X60473Y562762D01*
X61285Y562049D01*
X62049Y561285D01*
X62762Y560473D01*
X63419Y559616D01*
X64019Y558718D01*
X64560Y557782D01*
X65037Y556813D01*
X65451Y555815D01*
X65798Y554792D01*
X66078Y553749D01*
X66288Y552689D01*
X66429Y551618D01*
X66500Y550540D01*
X66500Y549460D01*
X606500Y39460D02*
X606429Y38382D01*
X606288Y37311D01*
X606078Y36251D01*
X605798Y35208D01*
X605451Y34185D01*
X605037Y33187D01*
X604560Y32218D01*
X604019Y31282D01*
X603419Y30384D01*
X602762Y29527D01*
X602049Y28715D01*
X601285Y27951D01*
X600473Y27239D01*
X599616Y26581D01*
X598718Y25981D01*
X597782Y25441D01*
X596813Y24963D01*
X595815Y24549D01*
X594792Y24202D01*
X593749Y23922D01*
X592689Y23712D01*
X591618Y23571D01*
X590540Y23500D01*
X589460Y23500D01*
X588382Y23571D01*
X587311Y23712D01*
X586251Y23922D01*
X585208Y24202D01*
X584185Y24549D01*
X583187Y24963D01*
X582218Y25441D01*
X581282Y25981D01*
X580384Y26581D01*
X579527Y27239D01*
X578715Y27951D01*
X577951Y28715D01*
X577239Y29527D01*
X576581Y30384D01*
X575981Y31282D01*
X575441Y32218D01*
X574963Y33187D01*
X574549Y34185D01*
X574202Y35208D01*
X573922Y36251D01*
X573712Y37311D01*
X573571Y38382D01*
X573500Y39460D01*
X573500Y40540D01*
X573571Y41618D01*
X573712Y42689D01*
X573922Y43749D01*
X574202Y44792D01*
X574549Y45815D01*
X574963Y46813D01*
X575441Y47782D01*
X575981Y48718D01*
X576581Y49616D01*
X577239Y50473D01*
X577951Y51285D01*
X578715Y52049D01*
X579527Y52762D01*
X580384Y53419D01*
X581282Y54019D01*
X582218Y54560D01*
X583187Y55037D01*
X584185Y55451D01*
X585208Y55798D01*
X586251Y56078D01*
X587311Y56288D01*
X588382Y56429D01*
X589460Y56500D01*
X590540Y56500D01*
X591618Y56429D01*
X592689Y56288D01*
X593749Y56078D01*
X594792Y55798D01*
X595815Y55451D01*
X596813Y55037D01*
X597782Y54560D01*
X598718Y54019D01*
X599616Y53419D01*
X600473Y52762D01*
X601285Y52049D01*
X602049Y51285D01*
X602762Y50473D01*
X603419Y49616D01*
X604019Y48718D01*
X604560Y47782D01*
X605037Y46813D01*
X605451Y45815D01*
X605798Y44792D01*
X606078Y43749D01*
X606288Y42689D01*
X606429Y41618D01*
X606500Y40540D01*
X606500Y39460D01*
X606500Y559460D02*
X606429Y558382D01*
X606288Y557311D01*
X606078Y556251D01*
X605798Y555208D01*
X605451Y554185D01*
X605037Y553187D01*
X604560Y552218D01*
X604019Y551282D01*
X603419Y550384D01*
X602762Y549527D01*
X602049Y548715D01*
X601285Y547951D01*
X600473Y547239D01*
X599616Y546581D01*
X598718Y545981D01*
X597782Y545441D01*
X596813Y544963D01*
X595815Y544549D01*
X594792Y544202D01*
X593749Y543922D01*
X592689Y543712D01*
X591618Y543571D01*
X590540Y543500D01*
X589460Y543500D01*
X588382Y543571D01*
X587311Y543712D01*
X586251Y543922D01*
X585208Y544202D01*
X584185Y544549D01*
X583187Y544963D01*
X582218Y545441D01*
X581282Y545981D01*
X580384Y546581D01*
X579527Y547239D01*
X578715Y547951D01*
X577951Y548715D01*
X577239Y549527D01*
X576581Y550384D01*
X575981Y551282D01*
X575441Y552218D01*
X574963Y553187D01*
X574549Y554185D01*
X574202Y555208D01*
X573922Y556251D01*
X573712Y557311D01*
X573571Y558382D01*
X573500Y559460D01*
X573500Y560540D01*
X573571Y561618D01*
X573712Y562689D01*
X573922Y563749D01*
X574202Y564792D01*
X574549Y565815D01*
X574963Y566813D01*
X575441Y567782D01*
X575981Y568718D01*
X576581Y569616D01*
X577239Y570473D01*
X577951Y571285D01*
X578715Y572049D01*
X579527Y572762D01*
X580384Y573419D01*
X581282Y574019D01*
X582218Y574560D01*
X583187Y575037D01*
X584185Y575451D01*
X585208Y575798D01*
X586251Y576078D01*
X587311Y576288D01*
X588382Y576429D01*
X589460Y576500D01*
X590540Y576500D01*
X591618Y576429D01*
X592689Y576288D01*
X593749Y576078D01*
X594792Y575798D01*
X595815Y575451D01*
X596813Y575037D01*
X597782Y574560D01*
X598718Y574019D01*
X599616Y573419D01*
X600473Y572762D01*
X601285Y572049D01*
X602049Y571285D01*
X602762Y570473D01*
X603419Y569616D01*
X604019Y568718D01*
X604560Y567782D01*
X605037Y566813D01*
X605451Y565815D01*
X605798Y564792D01*
X606078Y563749D01*
X606288Y562689D01*
X606429Y561618D01*
X606500Y560540D01*
X606500Y559460D01*
X46500Y29460D02*
X46429Y28382D01*
X46288Y27311D01*
X46078Y26251D01*
X45798Y25208D01*
X45451Y24185D01*
X45037Y23187D01*
X44560Y22218D01*
X44019Y21282D01*
X43419Y20384D01*
X42762Y19527D01*
X42049Y18715D01*
X41285Y17951D01*
X40473Y17239D01*
X39616Y16581D01*
X38718Y15981D01*
X37782Y15441D01*
X36813Y14963D01*
X35815Y14549D01*
X34792Y14202D01*
X33749Y13922D01*
X32689Y13712D01*
X31618Y13571D01*
X30540Y13500D01*
X29460Y13500D01*
X28382Y13571D01*
X27311Y13712D01*
X26251Y13922D01*
X25208Y14202D01*
X24185Y14549D01*
X23187Y14963D01*
X22218Y15441D01*
X21282Y15981D01*
X20384Y16581D01*
X19527Y17239D01*
X18715Y17951D01*
X17951Y18715D01*
X17239Y19527D01*
X16581Y20384D01*
X15981Y21282D01*
X15441Y22218D01*
X14963Y23187D01*
X14549Y24185D01*
X14202Y25208D01*
X13922Y26251D01*
X13712Y27311D01*
X13571Y28382D01*
X13500Y29460D01*
X13500Y30540D01*
X13571Y31618D01*
X13712Y32689D01*
X13922Y33749D01*
X14202Y34792D01*
X14549Y35815D01*
X14963Y36813D01*
X15441Y37782D01*
X15981Y38718D01*
X16581Y39616D01*
X17239Y40473D01*
X17951Y41285D01*
X18715Y42049D01*
X19527Y42762D01*
X20384Y43419D01*
X21282Y44019D01*
X22218Y44560D01*
X23187Y45037D01*
X24185Y45451D01*
X25208Y45798D01*
X26251Y46078D01*
X27311Y46288D01*
X28382Y46429D01*
X29460Y46500D01*
X30540Y46500D01*
X31618Y46429D01*
X32689Y46288D01*
X33749Y46078D01*
X34792Y45798D01*
X35815Y45451D01*
X36813Y45037D01*
X37782Y44560D01*
X38718Y44019D01*
X39616Y43419D01*
X40473Y42762D01*
X41285Y42049D01*
X42049Y41285D01*
X42762Y40473D01*
X43419Y39616D01*
X44019Y38718D01*
X44560Y37782D01*
X45037Y36813D01*
X45451Y35815D01*
X45798Y34792D01*
X46078Y33749D01*
X46288Y32689D01*
X46429Y31618D01*
X46500Y30540D01*
X46500Y29460D01*
X526232Y69410D02*
X527133Y69339D01*
X528025Y69198D01*
X528904Y68987D01*
X529763Y68708D01*
X530598Y68362D01*
X531403Y67951D01*
X532174Y67479D01*
X532905Y66948D01*
X533592Y66361D01*
X534231Y65722D01*
X534818Y65035D01*
X535349Y64304D01*
X535821Y63533D01*
X536232Y62728D01*
X536578Y61893D01*
X536857Y61034D01*
X537068Y60155D01*
X537209Y59263D01*
X537280Y58362D01*
X537280Y57458D01*
X537209Y56557D01*
X537068Y55665D01*
X536857Y54786D01*
X536578Y53927D01*
X536232Y53092D01*
X535821Y52287D01*
X535349Y51516D01*
X534818Y50785D01*
X534231Y50098D01*
X533592Y49459D01*
X532905Y48872D01*
X532174Y48341D01*
X531403Y47869D01*
X530598Y47458D01*
X529763Y47112D01*
X528904Y46833D01*
X528025Y46622D01*
X527133Y46481D01*
X526232Y46410D01*
X525328Y46410D01*
X524427Y46481D01*
X523535Y46622D01*
X522656Y46833D01*
X521797Y47112D01*
X520962Y47458D01*
X520157Y47869D01*
X519386Y48341D01*
X518655Y48872D01*
X517968Y49459D01*
X517329Y50098D01*
X516742Y50785D01*
X516211Y51516D01*
X515739Y52287D01*
X515328Y53092D01*
X514982Y53927D01*
X514703Y54786D01*
X514492Y55665D01*
X514351Y56557D01*
X514280Y57458D01*
X514280Y58362D01*
X514351Y59263D01*
X514492Y60155D01*
X514703Y61034D01*
X514982Y61893D01*
X515328Y62728D01*
X515739Y63533D01*
X516211Y64304D01*
X516742Y65035D01*
X517329Y65722D01*
X517968Y66361D01*
X518655Y66948D01*
X519386Y67479D01*
X520157Y67951D01*
X520962Y68362D01*
X521797Y68708D01*
X522656Y68987D01*
X523535Y69198D01*
X524427Y69339D01*
X525328Y69410D01*
X526232Y69410D01*
X526232Y189810D02*
X527133Y189739D01*
X528025Y189598D01*
X528904Y189387D01*
X529763Y189108D01*
X530598Y188762D01*
X531403Y188351D01*
X532174Y187879D01*
X532905Y187348D01*
X533592Y186761D01*
X534231Y186122D01*
X534818Y185435D01*
X535349Y184704D01*
X535821Y183933D01*
X536232Y183128D01*
X536578Y182293D01*
X536857Y181434D01*
X537068Y180555D01*
X537209Y179663D01*
X537280Y178762D01*
X537280Y177858D01*
X537209Y176957D01*
X537068Y176065D01*
X536857Y175186D01*
X536578Y174327D01*
X536232Y173492D01*
X535821Y172687D01*
X535349Y171916D01*
X534818Y171185D01*
X534231Y170498D01*
X533592Y169859D01*
X532905Y169272D01*
X532174Y168741D01*
X531403Y168269D01*
X530598Y167858D01*
X529763Y167512D01*
X528904Y167233D01*
X528025Y167022D01*
X527133Y166881D01*
X526232Y166810D01*
X525328Y166810D01*
X524427Y166881D01*
X523535Y167022D01*
X522656Y167233D01*
X521797Y167512D01*
X520962Y167858D01*
X520157Y168269D01*
X519386Y168741D01*
X518655Y169272D01*
X517968Y169859D01*
X517329Y170498D01*
X516742Y171185D01*
X516211Y171916D01*
X515739Y172687D01*
X515328Y173492D01*
X514982Y174327D01*
X514703Y175186D01*
X514492Y176065D01*
X514351Y176957D01*
X514280Y177858D01*
X514280Y178762D01*
X514351Y179663D01*
X514492Y180555D01*
X514703Y181434D01*
X514982Y182293D01*
X515328Y183128D01*
X515739Y183933D01*
X516211Y184704D01*
X516742Y185435D01*
X517329Y186122D01*
X517968Y186761D01*
X518655Y187348D01*
X519386Y187879D01*
X520157Y188351D01*
X520962Y188762D01*
X521797Y189108D01*
X522656Y189387D01*
X523535Y189598D01*
X524427Y189739D01*
X525328Y189810D01*
X526232Y189810D01*
M02*
