G04 EAGLE Gerber RS-274X export*
G75*
%MOMM*%
%FSLAX34Y34*%
%LPD*%
%INSoldermask Bottom*%
%IPPOS*%
%AMOC8*
5,1,8,0,0,1.08239X$1,22.5*%
G01*
%ADD10C,0.000000*%
%ADD11C,3.503200*%
%ADD12C,1.727200*%
%ADD13P,1.649562X8X292.500000*%
%ADD14C,1.524000*%
%ADD15P,1.798066X8X112.500000*%
%ADD16C,2.503200*%
%ADD17R,1.908300X1.908300*%
%ADD18C,1.503200*%
%ADD19C,1.109600*%


D10*
X0Y0D02*
X629920Y0D01*
X0Y595630D02*
X0Y596900D01*
X33500Y550000D02*
X33505Y550405D01*
X33520Y550810D01*
X33545Y551214D01*
X33579Y551617D01*
X33624Y552020D01*
X33679Y552421D01*
X33743Y552821D01*
X33817Y553219D01*
X33901Y553615D01*
X33994Y554009D01*
X34098Y554401D01*
X34210Y554790D01*
X34333Y555176D01*
X34465Y555559D01*
X34606Y555938D01*
X34756Y556314D01*
X34916Y556686D01*
X35084Y557055D01*
X35262Y557419D01*
X35448Y557778D01*
X35644Y558133D01*
X35847Y558483D01*
X36060Y558827D01*
X36281Y559167D01*
X36510Y559501D01*
X36747Y559829D01*
X36992Y560151D01*
X37245Y560467D01*
X37506Y560777D01*
X37774Y561081D01*
X38050Y561377D01*
X38333Y561667D01*
X38623Y561950D01*
X38919Y562226D01*
X39223Y562494D01*
X39533Y562755D01*
X39849Y563008D01*
X40171Y563253D01*
X40499Y563490D01*
X40833Y563719D01*
X41173Y563940D01*
X41517Y564153D01*
X41867Y564356D01*
X42222Y564552D01*
X42581Y564738D01*
X42945Y564916D01*
X43314Y565084D01*
X43686Y565244D01*
X44062Y565394D01*
X44441Y565535D01*
X44824Y565667D01*
X45210Y565790D01*
X45599Y565902D01*
X45991Y566006D01*
X46385Y566099D01*
X46781Y566183D01*
X47179Y566257D01*
X47579Y566321D01*
X47980Y566376D01*
X48383Y566421D01*
X48786Y566455D01*
X49190Y566480D01*
X49595Y566495D01*
X50000Y566500D01*
X50405Y566495D01*
X50810Y566480D01*
X51214Y566455D01*
X51617Y566421D01*
X52020Y566376D01*
X52421Y566321D01*
X52821Y566257D01*
X53219Y566183D01*
X53615Y566099D01*
X54009Y566006D01*
X54401Y565902D01*
X54790Y565790D01*
X55176Y565667D01*
X55559Y565535D01*
X55938Y565394D01*
X56314Y565244D01*
X56686Y565084D01*
X57055Y564916D01*
X57419Y564738D01*
X57778Y564552D01*
X58133Y564356D01*
X58483Y564153D01*
X58827Y563940D01*
X59167Y563719D01*
X59501Y563490D01*
X59829Y563253D01*
X60151Y563008D01*
X60467Y562755D01*
X60777Y562494D01*
X61081Y562226D01*
X61377Y561950D01*
X61667Y561667D01*
X61950Y561377D01*
X62226Y561081D01*
X62494Y560777D01*
X62755Y560467D01*
X63008Y560151D01*
X63253Y559829D01*
X63490Y559501D01*
X63719Y559167D01*
X63940Y558827D01*
X64153Y558483D01*
X64356Y558133D01*
X64552Y557778D01*
X64738Y557419D01*
X64916Y557055D01*
X65084Y556686D01*
X65244Y556314D01*
X65394Y555938D01*
X65535Y555559D01*
X65667Y555176D01*
X65790Y554790D01*
X65902Y554401D01*
X66006Y554009D01*
X66099Y553615D01*
X66183Y553219D01*
X66257Y552821D01*
X66321Y552421D01*
X66376Y552020D01*
X66421Y551617D01*
X66455Y551214D01*
X66480Y550810D01*
X66495Y550405D01*
X66500Y550000D01*
X66495Y549595D01*
X66480Y549190D01*
X66455Y548786D01*
X66421Y548383D01*
X66376Y547980D01*
X66321Y547579D01*
X66257Y547179D01*
X66183Y546781D01*
X66099Y546385D01*
X66006Y545991D01*
X65902Y545599D01*
X65790Y545210D01*
X65667Y544824D01*
X65535Y544441D01*
X65394Y544062D01*
X65244Y543686D01*
X65084Y543314D01*
X64916Y542945D01*
X64738Y542581D01*
X64552Y542222D01*
X64356Y541867D01*
X64153Y541517D01*
X63940Y541173D01*
X63719Y540833D01*
X63490Y540499D01*
X63253Y540171D01*
X63008Y539849D01*
X62755Y539533D01*
X62494Y539223D01*
X62226Y538919D01*
X61950Y538623D01*
X61667Y538333D01*
X61377Y538050D01*
X61081Y537774D01*
X60777Y537506D01*
X60467Y537245D01*
X60151Y536992D01*
X59829Y536747D01*
X59501Y536510D01*
X59167Y536281D01*
X58827Y536060D01*
X58483Y535847D01*
X58133Y535644D01*
X57778Y535448D01*
X57419Y535262D01*
X57055Y535084D01*
X56686Y534916D01*
X56314Y534756D01*
X55938Y534606D01*
X55559Y534465D01*
X55176Y534333D01*
X54790Y534210D01*
X54401Y534098D01*
X54009Y533994D01*
X53615Y533901D01*
X53219Y533817D01*
X52821Y533743D01*
X52421Y533679D01*
X52020Y533624D01*
X51617Y533579D01*
X51214Y533545D01*
X50810Y533520D01*
X50405Y533505D01*
X50000Y533500D01*
X49595Y533505D01*
X49190Y533520D01*
X48786Y533545D01*
X48383Y533579D01*
X47980Y533624D01*
X47579Y533679D01*
X47179Y533743D01*
X46781Y533817D01*
X46385Y533901D01*
X45991Y533994D01*
X45599Y534098D01*
X45210Y534210D01*
X44824Y534333D01*
X44441Y534465D01*
X44062Y534606D01*
X43686Y534756D01*
X43314Y534916D01*
X42945Y535084D01*
X42581Y535262D01*
X42222Y535448D01*
X41867Y535644D01*
X41517Y535847D01*
X41173Y536060D01*
X40833Y536281D01*
X40499Y536510D01*
X40171Y536747D01*
X39849Y536992D01*
X39533Y537245D01*
X39223Y537506D01*
X38919Y537774D01*
X38623Y538050D01*
X38333Y538333D01*
X38050Y538623D01*
X37774Y538919D01*
X37506Y539223D01*
X37245Y539533D01*
X36992Y539849D01*
X36747Y540171D01*
X36510Y540499D01*
X36281Y540833D01*
X36060Y541173D01*
X35847Y541517D01*
X35644Y541867D01*
X35448Y542222D01*
X35262Y542581D01*
X35084Y542945D01*
X34916Y543314D01*
X34756Y543686D01*
X34606Y544062D01*
X34465Y544441D01*
X34333Y544824D01*
X34210Y545210D01*
X34098Y545599D01*
X33994Y545991D01*
X33901Y546385D01*
X33817Y546781D01*
X33743Y547179D01*
X33679Y547579D01*
X33624Y547980D01*
X33579Y548383D01*
X33545Y548786D01*
X33520Y549190D01*
X33505Y549595D01*
X33500Y550000D01*
D11*
X50000Y550000D03*
D10*
X573500Y40000D02*
X573505Y40405D01*
X573520Y40810D01*
X573545Y41214D01*
X573579Y41617D01*
X573624Y42020D01*
X573679Y42421D01*
X573743Y42821D01*
X573817Y43219D01*
X573901Y43615D01*
X573994Y44009D01*
X574098Y44401D01*
X574210Y44790D01*
X574333Y45176D01*
X574465Y45559D01*
X574606Y45938D01*
X574756Y46314D01*
X574916Y46686D01*
X575084Y47055D01*
X575262Y47419D01*
X575448Y47778D01*
X575644Y48133D01*
X575847Y48483D01*
X576060Y48827D01*
X576281Y49167D01*
X576510Y49501D01*
X576747Y49829D01*
X576992Y50151D01*
X577245Y50467D01*
X577506Y50777D01*
X577774Y51081D01*
X578050Y51377D01*
X578333Y51667D01*
X578623Y51950D01*
X578919Y52226D01*
X579223Y52494D01*
X579533Y52755D01*
X579849Y53008D01*
X580171Y53253D01*
X580499Y53490D01*
X580833Y53719D01*
X581173Y53940D01*
X581517Y54153D01*
X581867Y54356D01*
X582222Y54552D01*
X582581Y54738D01*
X582945Y54916D01*
X583314Y55084D01*
X583686Y55244D01*
X584062Y55394D01*
X584441Y55535D01*
X584824Y55667D01*
X585210Y55790D01*
X585599Y55902D01*
X585991Y56006D01*
X586385Y56099D01*
X586781Y56183D01*
X587179Y56257D01*
X587579Y56321D01*
X587980Y56376D01*
X588383Y56421D01*
X588786Y56455D01*
X589190Y56480D01*
X589595Y56495D01*
X590000Y56500D01*
X590405Y56495D01*
X590810Y56480D01*
X591214Y56455D01*
X591617Y56421D01*
X592020Y56376D01*
X592421Y56321D01*
X592821Y56257D01*
X593219Y56183D01*
X593615Y56099D01*
X594009Y56006D01*
X594401Y55902D01*
X594790Y55790D01*
X595176Y55667D01*
X595559Y55535D01*
X595938Y55394D01*
X596314Y55244D01*
X596686Y55084D01*
X597055Y54916D01*
X597419Y54738D01*
X597778Y54552D01*
X598133Y54356D01*
X598483Y54153D01*
X598827Y53940D01*
X599167Y53719D01*
X599501Y53490D01*
X599829Y53253D01*
X600151Y53008D01*
X600467Y52755D01*
X600777Y52494D01*
X601081Y52226D01*
X601377Y51950D01*
X601667Y51667D01*
X601950Y51377D01*
X602226Y51081D01*
X602494Y50777D01*
X602755Y50467D01*
X603008Y50151D01*
X603253Y49829D01*
X603490Y49501D01*
X603719Y49167D01*
X603940Y48827D01*
X604153Y48483D01*
X604356Y48133D01*
X604552Y47778D01*
X604738Y47419D01*
X604916Y47055D01*
X605084Y46686D01*
X605244Y46314D01*
X605394Y45938D01*
X605535Y45559D01*
X605667Y45176D01*
X605790Y44790D01*
X605902Y44401D01*
X606006Y44009D01*
X606099Y43615D01*
X606183Y43219D01*
X606257Y42821D01*
X606321Y42421D01*
X606376Y42020D01*
X606421Y41617D01*
X606455Y41214D01*
X606480Y40810D01*
X606495Y40405D01*
X606500Y40000D01*
X606495Y39595D01*
X606480Y39190D01*
X606455Y38786D01*
X606421Y38383D01*
X606376Y37980D01*
X606321Y37579D01*
X606257Y37179D01*
X606183Y36781D01*
X606099Y36385D01*
X606006Y35991D01*
X605902Y35599D01*
X605790Y35210D01*
X605667Y34824D01*
X605535Y34441D01*
X605394Y34062D01*
X605244Y33686D01*
X605084Y33314D01*
X604916Y32945D01*
X604738Y32581D01*
X604552Y32222D01*
X604356Y31867D01*
X604153Y31517D01*
X603940Y31173D01*
X603719Y30833D01*
X603490Y30499D01*
X603253Y30171D01*
X603008Y29849D01*
X602755Y29533D01*
X602494Y29223D01*
X602226Y28919D01*
X601950Y28623D01*
X601667Y28333D01*
X601377Y28050D01*
X601081Y27774D01*
X600777Y27506D01*
X600467Y27245D01*
X600151Y26992D01*
X599829Y26747D01*
X599501Y26510D01*
X599167Y26281D01*
X598827Y26060D01*
X598483Y25847D01*
X598133Y25644D01*
X597778Y25448D01*
X597419Y25262D01*
X597055Y25084D01*
X596686Y24916D01*
X596314Y24756D01*
X595938Y24606D01*
X595559Y24465D01*
X595176Y24333D01*
X594790Y24210D01*
X594401Y24098D01*
X594009Y23994D01*
X593615Y23901D01*
X593219Y23817D01*
X592821Y23743D01*
X592421Y23679D01*
X592020Y23624D01*
X591617Y23579D01*
X591214Y23545D01*
X590810Y23520D01*
X590405Y23505D01*
X590000Y23500D01*
X589595Y23505D01*
X589190Y23520D01*
X588786Y23545D01*
X588383Y23579D01*
X587980Y23624D01*
X587579Y23679D01*
X587179Y23743D01*
X586781Y23817D01*
X586385Y23901D01*
X585991Y23994D01*
X585599Y24098D01*
X585210Y24210D01*
X584824Y24333D01*
X584441Y24465D01*
X584062Y24606D01*
X583686Y24756D01*
X583314Y24916D01*
X582945Y25084D01*
X582581Y25262D01*
X582222Y25448D01*
X581867Y25644D01*
X581517Y25847D01*
X581173Y26060D01*
X580833Y26281D01*
X580499Y26510D01*
X580171Y26747D01*
X579849Y26992D01*
X579533Y27245D01*
X579223Y27506D01*
X578919Y27774D01*
X578623Y28050D01*
X578333Y28333D01*
X578050Y28623D01*
X577774Y28919D01*
X577506Y29223D01*
X577245Y29533D01*
X576992Y29849D01*
X576747Y30171D01*
X576510Y30499D01*
X576281Y30833D01*
X576060Y31173D01*
X575847Y31517D01*
X575644Y31867D01*
X575448Y32222D01*
X575262Y32581D01*
X575084Y32945D01*
X574916Y33314D01*
X574756Y33686D01*
X574606Y34062D01*
X574465Y34441D01*
X574333Y34824D01*
X574210Y35210D01*
X574098Y35599D01*
X573994Y35991D01*
X573901Y36385D01*
X573817Y36781D01*
X573743Y37179D01*
X573679Y37579D01*
X573624Y37980D01*
X573579Y38383D01*
X573545Y38786D01*
X573520Y39190D01*
X573505Y39595D01*
X573500Y40000D01*
D11*
X590000Y40000D03*
D10*
X573500Y560000D02*
X573505Y560405D01*
X573520Y560810D01*
X573545Y561214D01*
X573579Y561617D01*
X573624Y562020D01*
X573679Y562421D01*
X573743Y562821D01*
X573817Y563219D01*
X573901Y563615D01*
X573994Y564009D01*
X574098Y564401D01*
X574210Y564790D01*
X574333Y565176D01*
X574465Y565559D01*
X574606Y565938D01*
X574756Y566314D01*
X574916Y566686D01*
X575084Y567055D01*
X575262Y567419D01*
X575448Y567778D01*
X575644Y568133D01*
X575847Y568483D01*
X576060Y568827D01*
X576281Y569167D01*
X576510Y569501D01*
X576747Y569829D01*
X576992Y570151D01*
X577245Y570467D01*
X577506Y570777D01*
X577774Y571081D01*
X578050Y571377D01*
X578333Y571667D01*
X578623Y571950D01*
X578919Y572226D01*
X579223Y572494D01*
X579533Y572755D01*
X579849Y573008D01*
X580171Y573253D01*
X580499Y573490D01*
X580833Y573719D01*
X581173Y573940D01*
X581517Y574153D01*
X581867Y574356D01*
X582222Y574552D01*
X582581Y574738D01*
X582945Y574916D01*
X583314Y575084D01*
X583686Y575244D01*
X584062Y575394D01*
X584441Y575535D01*
X584824Y575667D01*
X585210Y575790D01*
X585599Y575902D01*
X585991Y576006D01*
X586385Y576099D01*
X586781Y576183D01*
X587179Y576257D01*
X587579Y576321D01*
X587980Y576376D01*
X588383Y576421D01*
X588786Y576455D01*
X589190Y576480D01*
X589595Y576495D01*
X590000Y576500D01*
X590405Y576495D01*
X590810Y576480D01*
X591214Y576455D01*
X591617Y576421D01*
X592020Y576376D01*
X592421Y576321D01*
X592821Y576257D01*
X593219Y576183D01*
X593615Y576099D01*
X594009Y576006D01*
X594401Y575902D01*
X594790Y575790D01*
X595176Y575667D01*
X595559Y575535D01*
X595938Y575394D01*
X596314Y575244D01*
X596686Y575084D01*
X597055Y574916D01*
X597419Y574738D01*
X597778Y574552D01*
X598133Y574356D01*
X598483Y574153D01*
X598827Y573940D01*
X599167Y573719D01*
X599501Y573490D01*
X599829Y573253D01*
X600151Y573008D01*
X600467Y572755D01*
X600777Y572494D01*
X601081Y572226D01*
X601377Y571950D01*
X601667Y571667D01*
X601950Y571377D01*
X602226Y571081D01*
X602494Y570777D01*
X602755Y570467D01*
X603008Y570151D01*
X603253Y569829D01*
X603490Y569501D01*
X603719Y569167D01*
X603940Y568827D01*
X604153Y568483D01*
X604356Y568133D01*
X604552Y567778D01*
X604738Y567419D01*
X604916Y567055D01*
X605084Y566686D01*
X605244Y566314D01*
X605394Y565938D01*
X605535Y565559D01*
X605667Y565176D01*
X605790Y564790D01*
X605902Y564401D01*
X606006Y564009D01*
X606099Y563615D01*
X606183Y563219D01*
X606257Y562821D01*
X606321Y562421D01*
X606376Y562020D01*
X606421Y561617D01*
X606455Y561214D01*
X606480Y560810D01*
X606495Y560405D01*
X606500Y560000D01*
X606495Y559595D01*
X606480Y559190D01*
X606455Y558786D01*
X606421Y558383D01*
X606376Y557980D01*
X606321Y557579D01*
X606257Y557179D01*
X606183Y556781D01*
X606099Y556385D01*
X606006Y555991D01*
X605902Y555599D01*
X605790Y555210D01*
X605667Y554824D01*
X605535Y554441D01*
X605394Y554062D01*
X605244Y553686D01*
X605084Y553314D01*
X604916Y552945D01*
X604738Y552581D01*
X604552Y552222D01*
X604356Y551867D01*
X604153Y551517D01*
X603940Y551173D01*
X603719Y550833D01*
X603490Y550499D01*
X603253Y550171D01*
X603008Y549849D01*
X602755Y549533D01*
X602494Y549223D01*
X602226Y548919D01*
X601950Y548623D01*
X601667Y548333D01*
X601377Y548050D01*
X601081Y547774D01*
X600777Y547506D01*
X600467Y547245D01*
X600151Y546992D01*
X599829Y546747D01*
X599501Y546510D01*
X599167Y546281D01*
X598827Y546060D01*
X598483Y545847D01*
X598133Y545644D01*
X597778Y545448D01*
X597419Y545262D01*
X597055Y545084D01*
X596686Y544916D01*
X596314Y544756D01*
X595938Y544606D01*
X595559Y544465D01*
X595176Y544333D01*
X594790Y544210D01*
X594401Y544098D01*
X594009Y543994D01*
X593615Y543901D01*
X593219Y543817D01*
X592821Y543743D01*
X592421Y543679D01*
X592020Y543624D01*
X591617Y543579D01*
X591214Y543545D01*
X590810Y543520D01*
X590405Y543505D01*
X590000Y543500D01*
X589595Y543505D01*
X589190Y543520D01*
X588786Y543545D01*
X588383Y543579D01*
X587980Y543624D01*
X587579Y543679D01*
X587179Y543743D01*
X586781Y543817D01*
X586385Y543901D01*
X585991Y543994D01*
X585599Y544098D01*
X585210Y544210D01*
X584824Y544333D01*
X584441Y544465D01*
X584062Y544606D01*
X583686Y544756D01*
X583314Y544916D01*
X582945Y545084D01*
X582581Y545262D01*
X582222Y545448D01*
X581867Y545644D01*
X581517Y545847D01*
X581173Y546060D01*
X580833Y546281D01*
X580499Y546510D01*
X580171Y546747D01*
X579849Y546992D01*
X579533Y547245D01*
X579223Y547506D01*
X578919Y547774D01*
X578623Y548050D01*
X578333Y548333D01*
X578050Y548623D01*
X577774Y548919D01*
X577506Y549223D01*
X577245Y549533D01*
X576992Y549849D01*
X576747Y550171D01*
X576510Y550499D01*
X576281Y550833D01*
X576060Y551173D01*
X575847Y551517D01*
X575644Y551867D01*
X575448Y552222D01*
X575262Y552581D01*
X575084Y552945D01*
X574916Y553314D01*
X574756Y553686D01*
X574606Y554062D01*
X574465Y554441D01*
X574333Y554824D01*
X574210Y555210D01*
X574098Y555599D01*
X573994Y555991D01*
X573901Y556385D01*
X573817Y556781D01*
X573743Y557179D01*
X573679Y557579D01*
X573624Y557980D01*
X573579Y558383D01*
X573545Y558786D01*
X573520Y559190D01*
X573505Y559595D01*
X573500Y560000D01*
D11*
X590000Y560000D03*
D10*
X13500Y30000D02*
X13505Y30405D01*
X13520Y30810D01*
X13545Y31214D01*
X13579Y31617D01*
X13624Y32020D01*
X13679Y32421D01*
X13743Y32821D01*
X13817Y33219D01*
X13901Y33615D01*
X13994Y34009D01*
X14098Y34401D01*
X14210Y34790D01*
X14333Y35176D01*
X14465Y35559D01*
X14606Y35938D01*
X14756Y36314D01*
X14916Y36686D01*
X15084Y37055D01*
X15262Y37419D01*
X15448Y37778D01*
X15644Y38133D01*
X15847Y38483D01*
X16060Y38827D01*
X16281Y39167D01*
X16510Y39501D01*
X16747Y39829D01*
X16992Y40151D01*
X17245Y40467D01*
X17506Y40777D01*
X17774Y41081D01*
X18050Y41377D01*
X18333Y41667D01*
X18623Y41950D01*
X18919Y42226D01*
X19223Y42494D01*
X19533Y42755D01*
X19849Y43008D01*
X20171Y43253D01*
X20499Y43490D01*
X20833Y43719D01*
X21173Y43940D01*
X21517Y44153D01*
X21867Y44356D01*
X22222Y44552D01*
X22581Y44738D01*
X22945Y44916D01*
X23314Y45084D01*
X23686Y45244D01*
X24062Y45394D01*
X24441Y45535D01*
X24824Y45667D01*
X25210Y45790D01*
X25599Y45902D01*
X25991Y46006D01*
X26385Y46099D01*
X26781Y46183D01*
X27179Y46257D01*
X27579Y46321D01*
X27980Y46376D01*
X28383Y46421D01*
X28786Y46455D01*
X29190Y46480D01*
X29595Y46495D01*
X30000Y46500D01*
X30405Y46495D01*
X30810Y46480D01*
X31214Y46455D01*
X31617Y46421D01*
X32020Y46376D01*
X32421Y46321D01*
X32821Y46257D01*
X33219Y46183D01*
X33615Y46099D01*
X34009Y46006D01*
X34401Y45902D01*
X34790Y45790D01*
X35176Y45667D01*
X35559Y45535D01*
X35938Y45394D01*
X36314Y45244D01*
X36686Y45084D01*
X37055Y44916D01*
X37419Y44738D01*
X37778Y44552D01*
X38133Y44356D01*
X38483Y44153D01*
X38827Y43940D01*
X39167Y43719D01*
X39501Y43490D01*
X39829Y43253D01*
X40151Y43008D01*
X40467Y42755D01*
X40777Y42494D01*
X41081Y42226D01*
X41377Y41950D01*
X41667Y41667D01*
X41950Y41377D01*
X42226Y41081D01*
X42494Y40777D01*
X42755Y40467D01*
X43008Y40151D01*
X43253Y39829D01*
X43490Y39501D01*
X43719Y39167D01*
X43940Y38827D01*
X44153Y38483D01*
X44356Y38133D01*
X44552Y37778D01*
X44738Y37419D01*
X44916Y37055D01*
X45084Y36686D01*
X45244Y36314D01*
X45394Y35938D01*
X45535Y35559D01*
X45667Y35176D01*
X45790Y34790D01*
X45902Y34401D01*
X46006Y34009D01*
X46099Y33615D01*
X46183Y33219D01*
X46257Y32821D01*
X46321Y32421D01*
X46376Y32020D01*
X46421Y31617D01*
X46455Y31214D01*
X46480Y30810D01*
X46495Y30405D01*
X46500Y30000D01*
X46495Y29595D01*
X46480Y29190D01*
X46455Y28786D01*
X46421Y28383D01*
X46376Y27980D01*
X46321Y27579D01*
X46257Y27179D01*
X46183Y26781D01*
X46099Y26385D01*
X46006Y25991D01*
X45902Y25599D01*
X45790Y25210D01*
X45667Y24824D01*
X45535Y24441D01*
X45394Y24062D01*
X45244Y23686D01*
X45084Y23314D01*
X44916Y22945D01*
X44738Y22581D01*
X44552Y22222D01*
X44356Y21867D01*
X44153Y21517D01*
X43940Y21173D01*
X43719Y20833D01*
X43490Y20499D01*
X43253Y20171D01*
X43008Y19849D01*
X42755Y19533D01*
X42494Y19223D01*
X42226Y18919D01*
X41950Y18623D01*
X41667Y18333D01*
X41377Y18050D01*
X41081Y17774D01*
X40777Y17506D01*
X40467Y17245D01*
X40151Y16992D01*
X39829Y16747D01*
X39501Y16510D01*
X39167Y16281D01*
X38827Y16060D01*
X38483Y15847D01*
X38133Y15644D01*
X37778Y15448D01*
X37419Y15262D01*
X37055Y15084D01*
X36686Y14916D01*
X36314Y14756D01*
X35938Y14606D01*
X35559Y14465D01*
X35176Y14333D01*
X34790Y14210D01*
X34401Y14098D01*
X34009Y13994D01*
X33615Y13901D01*
X33219Y13817D01*
X32821Y13743D01*
X32421Y13679D01*
X32020Y13624D01*
X31617Y13579D01*
X31214Y13545D01*
X30810Y13520D01*
X30405Y13505D01*
X30000Y13500D01*
X29595Y13505D01*
X29190Y13520D01*
X28786Y13545D01*
X28383Y13579D01*
X27980Y13624D01*
X27579Y13679D01*
X27179Y13743D01*
X26781Y13817D01*
X26385Y13901D01*
X25991Y13994D01*
X25599Y14098D01*
X25210Y14210D01*
X24824Y14333D01*
X24441Y14465D01*
X24062Y14606D01*
X23686Y14756D01*
X23314Y14916D01*
X22945Y15084D01*
X22581Y15262D01*
X22222Y15448D01*
X21867Y15644D01*
X21517Y15847D01*
X21173Y16060D01*
X20833Y16281D01*
X20499Y16510D01*
X20171Y16747D01*
X19849Y16992D01*
X19533Y17245D01*
X19223Y17506D01*
X18919Y17774D01*
X18623Y18050D01*
X18333Y18333D01*
X18050Y18623D01*
X17774Y18919D01*
X17506Y19223D01*
X17245Y19533D01*
X16992Y19849D01*
X16747Y20171D01*
X16510Y20499D01*
X16281Y20833D01*
X16060Y21173D01*
X15847Y21517D01*
X15644Y21867D01*
X15448Y22222D01*
X15262Y22581D01*
X15084Y22945D01*
X14916Y23314D01*
X14756Y23686D01*
X14606Y24062D01*
X14465Y24441D01*
X14333Y24824D01*
X14210Y25210D01*
X14098Y25599D01*
X13994Y25991D01*
X13901Y26385D01*
X13817Y26781D01*
X13743Y27179D01*
X13679Y27579D01*
X13624Y27980D01*
X13579Y28383D01*
X13545Y28786D01*
X13520Y29190D01*
X13505Y29595D01*
X13500Y30000D01*
D11*
X30000Y30000D03*
D10*
X0Y0D02*
X0Y595630D01*
X629920Y595630D01*
X629920Y0D01*
D12*
X89916Y126492D02*
X89916Y141732D01*
X44704Y141732D02*
X44704Y126492D01*
X89916Y76708D02*
X89916Y61468D01*
X44704Y61468D02*
X44704Y76708D01*
D13*
X543560Y229870D03*
X543560Y204470D03*
D14*
X472440Y365760D03*
X472440Y414020D03*
X406400Y482600D03*
X431800Y482600D03*
D12*
X273812Y508254D02*
X258572Y508254D01*
X258572Y553466D02*
X273812Y553466D01*
X208788Y508254D02*
X193548Y508254D01*
X193548Y553466D02*
X208788Y553466D01*
X87376Y370332D02*
X87376Y355092D01*
X42164Y355092D02*
X42164Y370332D01*
X87376Y305308D02*
X87376Y290068D01*
X42164Y290068D02*
X42164Y305308D01*
X91186Y257302D02*
X91186Y242062D01*
X45974Y242062D02*
X45974Y257302D01*
X91186Y192278D02*
X91186Y177038D01*
X45974Y177038D02*
X45974Y192278D01*
D15*
X478680Y130610D03*
X478680Y105610D03*
X498680Y105610D03*
X498680Y130610D03*
D10*
X514280Y57910D02*
X514283Y58192D01*
X514294Y58474D01*
X514311Y58756D01*
X514335Y59037D01*
X514366Y59318D01*
X514404Y59597D01*
X514449Y59876D01*
X514501Y60154D01*
X514559Y60430D01*
X514625Y60704D01*
X514697Y60977D01*
X514775Y61248D01*
X514860Y61517D01*
X514952Y61784D01*
X515051Y62049D01*
X515155Y62311D01*
X515267Y62570D01*
X515384Y62827D01*
X515508Y63081D01*
X515638Y63331D01*
X515774Y63578D01*
X515916Y63822D01*
X516064Y64062D01*
X516218Y64299D01*
X516378Y64532D01*
X516543Y64761D01*
X516714Y64985D01*
X516890Y65206D01*
X517072Y65421D01*
X517259Y65633D01*
X517451Y65840D01*
X517648Y66042D01*
X517850Y66239D01*
X518057Y66431D01*
X518269Y66618D01*
X518484Y66800D01*
X518705Y66976D01*
X518929Y67147D01*
X519158Y67312D01*
X519391Y67472D01*
X519628Y67626D01*
X519868Y67774D01*
X520112Y67916D01*
X520359Y68052D01*
X520609Y68182D01*
X520863Y68306D01*
X521120Y68423D01*
X521379Y68535D01*
X521641Y68639D01*
X521906Y68738D01*
X522173Y68830D01*
X522442Y68915D01*
X522713Y68993D01*
X522986Y69065D01*
X523260Y69131D01*
X523536Y69189D01*
X523814Y69241D01*
X524093Y69286D01*
X524372Y69324D01*
X524653Y69355D01*
X524934Y69379D01*
X525216Y69396D01*
X525498Y69407D01*
X525780Y69410D01*
X526062Y69407D01*
X526344Y69396D01*
X526626Y69379D01*
X526907Y69355D01*
X527188Y69324D01*
X527467Y69286D01*
X527746Y69241D01*
X528024Y69189D01*
X528300Y69131D01*
X528574Y69065D01*
X528847Y68993D01*
X529118Y68915D01*
X529387Y68830D01*
X529654Y68738D01*
X529919Y68639D01*
X530181Y68535D01*
X530440Y68423D01*
X530697Y68306D01*
X530951Y68182D01*
X531201Y68052D01*
X531448Y67916D01*
X531692Y67774D01*
X531932Y67626D01*
X532169Y67472D01*
X532402Y67312D01*
X532631Y67147D01*
X532855Y66976D01*
X533076Y66800D01*
X533291Y66618D01*
X533503Y66431D01*
X533710Y66239D01*
X533912Y66042D01*
X534109Y65840D01*
X534301Y65633D01*
X534488Y65421D01*
X534670Y65206D01*
X534846Y64985D01*
X535017Y64761D01*
X535182Y64532D01*
X535342Y64299D01*
X535496Y64062D01*
X535644Y63822D01*
X535786Y63578D01*
X535922Y63331D01*
X536052Y63081D01*
X536176Y62827D01*
X536293Y62570D01*
X536405Y62311D01*
X536509Y62049D01*
X536608Y61784D01*
X536700Y61517D01*
X536785Y61248D01*
X536863Y60977D01*
X536935Y60704D01*
X537001Y60430D01*
X537059Y60154D01*
X537111Y59876D01*
X537156Y59597D01*
X537194Y59318D01*
X537225Y59037D01*
X537249Y58756D01*
X537266Y58474D01*
X537277Y58192D01*
X537280Y57910D01*
X537277Y57628D01*
X537266Y57346D01*
X537249Y57064D01*
X537225Y56783D01*
X537194Y56502D01*
X537156Y56223D01*
X537111Y55944D01*
X537059Y55666D01*
X537001Y55390D01*
X536935Y55116D01*
X536863Y54843D01*
X536785Y54572D01*
X536700Y54303D01*
X536608Y54036D01*
X536509Y53771D01*
X536405Y53509D01*
X536293Y53250D01*
X536176Y52993D01*
X536052Y52739D01*
X535922Y52489D01*
X535786Y52242D01*
X535644Y51998D01*
X535496Y51758D01*
X535342Y51521D01*
X535182Y51288D01*
X535017Y51059D01*
X534846Y50835D01*
X534670Y50614D01*
X534488Y50399D01*
X534301Y50187D01*
X534109Y49980D01*
X533912Y49778D01*
X533710Y49581D01*
X533503Y49389D01*
X533291Y49202D01*
X533076Y49020D01*
X532855Y48844D01*
X532631Y48673D01*
X532402Y48508D01*
X532169Y48348D01*
X531932Y48194D01*
X531692Y48046D01*
X531448Y47904D01*
X531201Y47768D01*
X530951Y47638D01*
X530697Y47514D01*
X530440Y47397D01*
X530181Y47285D01*
X529919Y47181D01*
X529654Y47082D01*
X529387Y46990D01*
X529118Y46905D01*
X528847Y46827D01*
X528574Y46755D01*
X528300Y46689D01*
X528024Y46631D01*
X527746Y46579D01*
X527467Y46534D01*
X527188Y46496D01*
X526907Y46465D01*
X526626Y46441D01*
X526344Y46424D01*
X526062Y46413D01*
X525780Y46410D01*
X525498Y46413D01*
X525216Y46424D01*
X524934Y46441D01*
X524653Y46465D01*
X524372Y46496D01*
X524093Y46534D01*
X523814Y46579D01*
X523536Y46631D01*
X523260Y46689D01*
X522986Y46755D01*
X522713Y46827D01*
X522442Y46905D01*
X522173Y46990D01*
X521906Y47082D01*
X521641Y47181D01*
X521379Y47285D01*
X521120Y47397D01*
X520863Y47514D01*
X520609Y47638D01*
X520359Y47768D01*
X520112Y47904D01*
X519868Y48046D01*
X519628Y48194D01*
X519391Y48348D01*
X519158Y48508D01*
X518929Y48673D01*
X518705Y48844D01*
X518484Y49020D01*
X518269Y49202D01*
X518057Y49389D01*
X517850Y49581D01*
X517648Y49778D01*
X517451Y49980D01*
X517259Y50187D01*
X517072Y50399D01*
X516890Y50614D01*
X516714Y50835D01*
X516543Y51059D01*
X516378Y51288D01*
X516218Y51521D01*
X516064Y51758D01*
X515916Y51998D01*
X515774Y52242D01*
X515638Y52489D01*
X515508Y52739D01*
X515384Y52993D01*
X515267Y53250D01*
X515155Y53509D01*
X515051Y53771D01*
X514952Y54036D01*
X514860Y54303D01*
X514775Y54572D01*
X514697Y54843D01*
X514625Y55116D01*
X514559Y55390D01*
X514501Y55666D01*
X514449Y55944D01*
X514404Y56223D01*
X514366Y56502D01*
X514335Y56783D01*
X514311Y57064D01*
X514294Y57346D01*
X514283Y57628D01*
X514280Y57910D01*
D16*
X525780Y57910D03*
D10*
X514280Y178310D02*
X514283Y178592D01*
X514294Y178874D01*
X514311Y179156D01*
X514335Y179437D01*
X514366Y179718D01*
X514404Y179997D01*
X514449Y180276D01*
X514501Y180554D01*
X514559Y180830D01*
X514625Y181104D01*
X514697Y181377D01*
X514775Y181648D01*
X514860Y181917D01*
X514952Y182184D01*
X515051Y182449D01*
X515155Y182711D01*
X515267Y182970D01*
X515384Y183227D01*
X515508Y183481D01*
X515638Y183731D01*
X515774Y183978D01*
X515916Y184222D01*
X516064Y184462D01*
X516218Y184699D01*
X516378Y184932D01*
X516543Y185161D01*
X516714Y185385D01*
X516890Y185606D01*
X517072Y185821D01*
X517259Y186033D01*
X517451Y186240D01*
X517648Y186442D01*
X517850Y186639D01*
X518057Y186831D01*
X518269Y187018D01*
X518484Y187200D01*
X518705Y187376D01*
X518929Y187547D01*
X519158Y187712D01*
X519391Y187872D01*
X519628Y188026D01*
X519868Y188174D01*
X520112Y188316D01*
X520359Y188452D01*
X520609Y188582D01*
X520863Y188706D01*
X521120Y188823D01*
X521379Y188935D01*
X521641Y189039D01*
X521906Y189138D01*
X522173Y189230D01*
X522442Y189315D01*
X522713Y189393D01*
X522986Y189465D01*
X523260Y189531D01*
X523536Y189589D01*
X523814Y189641D01*
X524093Y189686D01*
X524372Y189724D01*
X524653Y189755D01*
X524934Y189779D01*
X525216Y189796D01*
X525498Y189807D01*
X525780Y189810D01*
X526062Y189807D01*
X526344Y189796D01*
X526626Y189779D01*
X526907Y189755D01*
X527188Y189724D01*
X527467Y189686D01*
X527746Y189641D01*
X528024Y189589D01*
X528300Y189531D01*
X528574Y189465D01*
X528847Y189393D01*
X529118Y189315D01*
X529387Y189230D01*
X529654Y189138D01*
X529919Y189039D01*
X530181Y188935D01*
X530440Y188823D01*
X530697Y188706D01*
X530951Y188582D01*
X531201Y188452D01*
X531448Y188316D01*
X531692Y188174D01*
X531932Y188026D01*
X532169Y187872D01*
X532402Y187712D01*
X532631Y187547D01*
X532855Y187376D01*
X533076Y187200D01*
X533291Y187018D01*
X533503Y186831D01*
X533710Y186639D01*
X533912Y186442D01*
X534109Y186240D01*
X534301Y186033D01*
X534488Y185821D01*
X534670Y185606D01*
X534846Y185385D01*
X535017Y185161D01*
X535182Y184932D01*
X535342Y184699D01*
X535496Y184462D01*
X535644Y184222D01*
X535786Y183978D01*
X535922Y183731D01*
X536052Y183481D01*
X536176Y183227D01*
X536293Y182970D01*
X536405Y182711D01*
X536509Y182449D01*
X536608Y182184D01*
X536700Y181917D01*
X536785Y181648D01*
X536863Y181377D01*
X536935Y181104D01*
X537001Y180830D01*
X537059Y180554D01*
X537111Y180276D01*
X537156Y179997D01*
X537194Y179718D01*
X537225Y179437D01*
X537249Y179156D01*
X537266Y178874D01*
X537277Y178592D01*
X537280Y178310D01*
X537277Y178028D01*
X537266Y177746D01*
X537249Y177464D01*
X537225Y177183D01*
X537194Y176902D01*
X537156Y176623D01*
X537111Y176344D01*
X537059Y176066D01*
X537001Y175790D01*
X536935Y175516D01*
X536863Y175243D01*
X536785Y174972D01*
X536700Y174703D01*
X536608Y174436D01*
X536509Y174171D01*
X536405Y173909D01*
X536293Y173650D01*
X536176Y173393D01*
X536052Y173139D01*
X535922Y172889D01*
X535786Y172642D01*
X535644Y172398D01*
X535496Y172158D01*
X535342Y171921D01*
X535182Y171688D01*
X535017Y171459D01*
X534846Y171235D01*
X534670Y171014D01*
X534488Y170799D01*
X534301Y170587D01*
X534109Y170380D01*
X533912Y170178D01*
X533710Y169981D01*
X533503Y169789D01*
X533291Y169602D01*
X533076Y169420D01*
X532855Y169244D01*
X532631Y169073D01*
X532402Y168908D01*
X532169Y168748D01*
X531932Y168594D01*
X531692Y168446D01*
X531448Y168304D01*
X531201Y168168D01*
X530951Y168038D01*
X530697Y167914D01*
X530440Y167797D01*
X530181Y167685D01*
X529919Y167581D01*
X529654Y167482D01*
X529387Y167390D01*
X529118Y167305D01*
X528847Y167227D01*
X528574Y167155D01*
X528300Y167089D01*
X528024Y167031D01*
X527746Y166979D01*
X527467Y166934D01*
X527188Y166896D01*
X526907Y166865D01*
X526626Y166841D01*
X526344Y166824D01*
X526062Y166813D01*
X525780Y166810D01*
X525498Y166813D01*
X525216Y166824D01*
X524934Y166841D01*
X524653Y166865D01*
X524372Y166896D01*
X524093Y166934D01*
X523814Y166979D01*
X523536Y167031D01*
X523260Y167089D01*
X522986Y167155D01*
X522713Y167227D01*
X522442Y167305D01*
X522173Y167390D01*
X521906Y167482D01*
X521641Y167581D01*
X521379Y167685D01*
X521120Y167797D01*
X520863Y167914D01*
X520609Y168038D01*
X520359Y168168D01*
X520112Y168304D01*
X519868Y168446D01*
X519628Y168594D01*
X519391Y168748D01*
X519158Y168908D01*
X518929Y169073D01*
X518705Y169244D01*
X518484Y169420D01*
X518269Y169602D01*
X518057Y169789D01*
X517850Y169981D01*
X517648Y170178D01*
X517451Y170380D01*
X517259Y170587D01*
X517072Y170799D01*
X516890Y171014D01*
X516714Y171235D01*
X516543Y171459D01*
X516378Y171688D01*
X516218Y171921D01*
X516064Y172158D01*
X515916Y172398D01*
X515774Y172642D01*
X515638Y172889D01*
X515508Y173139D01*
X515384Y173393D01*
X515267Y173650D01*
X515155Y173909D01*
X515051Y174171D01*
X514952Y174436D01*
X514860Y174703D01*
X514775Y174972D01*
X514697Y175243D01*
X514625Y175516D01*
X514559Y175790D01*
X514501Y176066D01*
X514449Y176344D01*
X514404Y176623D01*
X514366Y176902D01*
X514335Y177183D01*
X514311Y177464D01*
X514294Y177746D01*
X514283Y178028D01*
X514280Y178310D01*
D16*
X525780Y178310D03*
D17*
X604520Y444500D03*
X604520Y469900D03*
X604520Y495300D03*
X604520Y520700D03*
D18*
X426720Y400050D03*
X542290Y480060D03*
X320040Y124460D03*
X160020Y355600D03*
X293370Y115570D03*
X231140Y133350D03*
X167236Y488950D03*
X266700Y488950D03*
X275590Y257810D03*
X515620Y435610D03*
X427994Y339094D03*
D19*
X560070Y480060D03*
D18*
X355600Y97790D03*
X400050Y257810D03*
X453390Y186690D03*
X503782Y524510D03*
X469876Y481354D03*
M02*
